<?xml version="1.0" encoding="UTF-8"?>
<svg width="64" height="64" version="1.1" viewBox="0 0 16.933 16.933" xmlns="http://www.w3.org/2000/svg">
 <g transform="translate(-149.01,-51.602)">
  <g transform="translate(4.0757)" stroke-width=".077126">
   <path d="m152.67 62.349c-0.22475-0.49091-0.38728-1.2179-0.46365-2.0739-0.0527-0.59051-0.0528-0.59074-0.30191-0.63747-0.25832-0.04846-0.48972-0.25192-0.6645-0.58428-0.27528-0.52344 0.0262-2.0389 0.7108-3.5723 0.65343-1.4638 0.73643-2.1126 0.31325-2.4488-0.18685-0.14846-0.27521-0.16186-0.82624-0.12534-0.33935 0.02249-0.82525 0.11445-1.0798 0.20435-0.25451 0.0899-0.54952 0.15347-0.65557 0.14128-0.16945-0.01949-0.1903-0.05489-0.17206-0.29212 0.0114-0.14847 0.11554-0.46083 0.23138-0.69414 0.28853-0.5811 0.62794-0.75474 1.2174-0.62283 0.61823 0.13835 1.7425 0.7166 2.1472 1.1044 0.31834 0.30502 0.35526 0.37617 0.35526 0.68457 0 0.2752-0.0776 0.47492-0.38736 0.99658-1.3168 2.2179-1.5531 3.4811-0.80578 4.3083 0.34076 0.37718 0.76442 0.51256 1.1977 0.38274 0.83939-0.25149 0.94346-1.3007 0.12902-1.3007-0.23841 0-0.47997 0.21122-0.68917 0.60259-0.13603 0.2545-0.34467 0.31734-0.50876 0.15325-0.14591-0.14591-0.11126-0.76277 0.0585-1.0411 0.39502-0.64784 1.7501-0.38202 2.0061 0.39353 0.20774 0.62946-0.59684 1.5398-1.5679 1.774l-0.22065 0.05321 0.054 1.1726c0.0297 0.64491 0.0837 1.3104 0.11991 1.479 0.0968 0.4502 0.0257 0.42955-0.19713-0.05726zm-2.4145-9.7477c0.18508-0.16749 0.17983-0.33512-0.0105-0.33512-0.14422 0-0.31123 0.20421-0.31123 0.38056 0 0.1223 0.16158 0.09948 0.32172-0.04545z" fill="#28802f"/>
   <path d="m151.59 68.463c-0.89597-0.13476-1.6583-0.45138-2.1083-0.87567-0.48058-0.45312-0.47551-0.41947-0.47495-3.1502 5.3e-4 -2.327 0.0103-2.506 0.14865-2.7159 0.18875-0.28631 0.67505-0.61324 1.2098-0.81332 0.41116-0.15384 1.4687-0.36428 1.5272-0.30391 0.0164 0.01694 0.0419 0.14883 0.0565 0.29309l0.0266 0.26229-0.53989 0.12862c-1.8041 0.4298-2.0432 1.4707-0.46276 2.0147 0.46635 0.16052 0.6817 0.18583 1.5811 0.18583 0.89691 0 1.1151-0.0255 1.5744-0.184 0.70713-0.24404 1.0788-0.58015 1.0788-0.97559 0-0.24311-0.0501-0.33482-0.30122-0.55194-0.29095-0.2515-0.92507-0.48942-1.6-0.6003-0.27526-0.04522-0.28922-0.0617-0.28922-0.34121v-0.29369l0.40491 0.03394c0.66208 0.0555 1.5887 0.33281 1.9713 0.58994 0.40167 0.26999 0.70888 0.67701 0.70888 0.9392 0 0.14549 0.0547 0.18372 0.32778 0.22909 0.6745 0.11207 1.0571 0.46815 1.2626 1.1751 0.16866 0.58018 0.10998 1.4993-0.12697 1.9888-0.20847 0.43064-0.63651 0.73259-1.1149 0.78651-0.34834 0.03926-0.34848 0.03941-0.34848 0.34653 0 1.2633-2.2416 2.1736-4.5119 1.8321zm5.1389-3.2366c0.27636-0.33224 0.24335-1.5311-0.0511-1.8565-0.0754-0.08331-0.23582-0.15147-0.35651-0.15147h-0.21942v2.256l0.25066-0.04844c0.13786-0.02664 0.30723-0.11645 0.37638-0.19958z" fill="#9ac926"/>
  </g>
 </g>
</svg>
